<?xml version="1.0" ?><!DOCTYPE svg  PUBLIC '-//W3C//DTD SVG 1.1//EN'  'http://www.w3.org/Graphics/SVG/1.1/DTD/svg11.dtd'><svg enable-background="new 0 0 50 50" height="50px" id="Layer_1" version="1.1" viewBox="0 0 50 50" width="50px" xml:space="preserve" xmlns="http://www.w3.org/2000/svg" xmlns:xlink="http://www.w3.org/1999/xlink"><rect fill="none" height="50" width="50"/><circle cx="39" cy="11" fill="none" r="3" stroke="#000000" stroke-linecap="round" stroke-miterlimit="10" stroke-width="2"/><path d="M47,5.5  C47,4.119,45.881,3,44.5,3c-0.156,0-14.876,0.002-14.876,0.002c-1.33,0-2.603-0.07-3.341,0.668L3.554,26.398  c-0.739,0.738-0.739,1.936,0,2.674l17.374,17.374c0.738,0.738,1.936,0.738,2.674,0L46.33,23.717c0.738-0.737,0.668-1.98,0.668-3.34  C46.998,20.377,47,5.656,47,5.5z" fill="none" stroke="#000000" stroke-linecap="round" stroke-miterlimit="10" stroke-width="2"/><g><path d="M19.109,27.444c0.006,0.86,0.283,1.675,0.83,2.441l4.357-4.357c-0.438-0.723-0.783-1.38-1.035-1.972   c-0.254-0.594-0.4-1.146-0.445-1.662c-0.043-0.515,0.039-1.008,0.248-1.479c0.208-0.472,0.553-0.949,1.035-1.432   c0.493-0.493,1.033-0.857,1.619-1.093s1.181-0.354,1.784-0.354c0.603,0,1.197,0.117,1.784,0.354   c0.586,0.235,1.131,0.573,1.636,1.011l1.085-1.085l0.904,0.905l-1.102,1.102c0.778,0.997,1.156,2.032,1.135,3.106   c-0.022,1.074-0.406,2.204-1.151,3.387l-1.397-1.397c0.865-1.305,0.888-2.554,0.066-3.748l-4.045,4.045l0.723,1.248   c0.165,0.275,0.326,0.629,0.486,1.062c0.158,0.432,0.254,0.906,0.287,1.422c0.033,0.514-0.035,1.049-0.205,1.603   s-0.508,1.082-1.012,1.586c-0.537,0.537-1.104,0.924-1.702,1.159c-0.597,0.236-1.206,0.346-1.824,0.329   c-0.62-0.017-1.236-0.156-1.851-0.419c-0.613-0.264-1.205-0.636-1.775-1.117l-1.348,1.348l-0.905-0.904l1.348-1.349   c-0.986-1.206-1.477-2.458-1.471-3.757c0.005-1.299,0.54-2.568,1.603-3.807l1.397,1.397C19.458,25.775,19.104,26.584,19.109,27.444   z M21.855,31.473c0.346,0.17,0.697,0.266,1.061,0.287c0.361,0.022,0.723-0.044,1.085-0.197c0.361-0.153,0.718-0.405,1.069-0.756   c0.316-0.318,0.528-0.639,0.633-0.963c0.104-0.323,0.139-0.654,0.106-0.994c-0.033-0.34-0.13-0.693-0.288-1.061   s-0.343-0.742-0.551-1.125l-4.126,4.126C21.172,31.074,21.51,31.303,21.855,31.473z M27.7,19.445   c-0.69-0.044-1.349,0.246-1.973,0.871c-0.285,0.285-0.482,0.576-0.592,0.872c-0.11,0.295-0.148,0.597-0.116,0.903   c0.033,0.308,0.115,0.625,0.247,0.954s0.296,0.669,0.493,1.019l3.848-3.847C29.025,19.746,28.391,19.488,27.7,19.445z"/></g></svg>